ffmpeg started on 2016-12-06 at 15:57:49
Report written to "Output/x264/results/ffmpeg/sintelmedium2000k.log"
Command line:
Tools/ffmpeg/ffmpeg -benchmark -y -i Input/y4m/sintel.y4m -c:v libx264 -preset medium -b:v 2000k -an Output/x264/encoded/sintelmedium2000k.mkv
ffmpeg version N-82227-gdb23fde Copyright (c) 2000-2016 the FFmpeg developers
  built with gcc 5.4.0 (Ubuntu 5.4.0-6ubuntu1~16.04.2) 20160609
  configuration: --prefix=/home/jaroslav/ffmpeg_build --pkg-config-flags=--static --extra-cflags=-I/home/jaroslav/ffmpeg_build/include --extra-ldflags=-L/home/jaroslav/ffmpeg_build/lib --bindir=/home/jaroslav/bin --enable-gpl --enable-libass --enable-libfdk-aac --enable-libfreetype --enable-libmp3lame --enable-libopus --enable-libtheora --enable-libvorbis --enable-libvpx --enable-libx264 --enable-libx265 --enable-nvenc --enable-libmfx --enable-libxvid --enable-libgsm --enable-libopencore-amrnb --enable-version3 --enable-nonfree
  libavutil      55. 35.100 / 55. 35.100
  libavcodec     57. 66.101 / 57. 66.101
  libavformat    57. 57.100 / 57. 57.100
  libavdevice    57.  2.100 / 57.  2.100
  libavfilter     6. 66.100 /  6. 66.100
  libswscale      4.  3.100 /  4.  3.100
  libswresample   2.  4.100 /  2.  4.100
  libpostproc    54.  2.100 / 54.  2.100
Input #0, yuv4mpegpipe, from 'Input/y4m/sintel.y4m':
  Duration: 00:00:20.83, start: 0.000000, bitrate: 2057307 kb/s
    Stream #0:0: Video: rawvideo (I420 / 0x30323449), yuv420p(progressive), 4096x1744, SAR 1:1 DAR 256:109, 24 fps, 24 tbr, 24 tbn, 24 tbc
[libx264 @ 0x42e71c0] using SAR=1/1
[libx264 @ 0x42e71c0] using cpu capabilities: MMX2 SSE2Fast SSSE3 SSE4.2 AVX FMA3 AVX2 LZCNT BMI2
[libx264 @ 0x42e71c0] profile High, level 5.1
[libx264 @ 0x42e71c0] 264 - core 148 - H.264/MPEG-4 AVC codec - Copyleft 2003-2016 - http://www.videolan.org/x264.html - options: cabac=1 ref=3 deblock=1:0:0 analyse=0x3:0x113 me=hex subme=7 psy=1 psy_rd=1.00:0.00 mixed_ref=1 me_range=16 chroma_me=1 trellis=1 8x8dct=1 cqm=0 deadzone=21,11 fast_pskip=1 chroma_qp_offset=-2 threads=6 lookahead_threads=1 sliced_threads=0 nr=0 decimate=1 interlaced=0 bluray_compat=0 constrained_intra=0 bframes=3 b_pyramid=2 b_adapt=1 b_bias=0 direct=1 weightb=1 open_gop=0 weightp=2 keyint=250 keyint_min=24 scenecut=40 intra_refresh=0 rc_lookahead=40 rc=abr mbtree=1 bitrate=2000 ratetol=1.0 qcomp=0.60 qpmin=0 qpmax=69 qpstep=4 ip_ratio=1.40 aq=1:1.00
Output #0, matroska, to 'Output/x264/encoded/sintelmedium2000k.mkv':
  Metadata:
    encoder         : Lavf57.57.100
    Stream #0:0: Video: h264 (libx264) (H264 / 0x34363248), yuv420p, 4096x1744 [SAR 1:1 DAR 256:109], q=-1--1, 2000 kb/s, 24 fps, 1k tbn, 24 tbc
    Metadata:
      encoder         : Lavc57.66.101 libx264
    Side data:
      cpb: bitrate max/min/avg: 0/0/2000000 buffer size: 0 vbv_delay: -1
Stream mapping:
  Stream #0:0 -> #0:0 (rawvideo (native) -> h264 (libx264))
Press [q] to stop, [?] for help
frame=    9 fps=0.0 q=0.0 size=       0kB time=00:00:00.00 bitrate=N/A speed=   0x    frame=   17 fps= 15 q=0.0 size=       0kB time=00:00:00.00 bitrate=N/A speed=   0x    frame=   24 fps= 14 q=0.0 size=       0kB time=00:00:00.00 bitrate=N/A speed=   0x    frame=   29 fps= 13 q=0.0 size=       0kB time=00:00:00.00 bitrate=N/A speed=   0x    frame=   36 fps= 12 q=0.0 size=       0kB time=00:00:00.00 bitrate=N/A speed=   0x    frame=   42 fps=8.4 q=0.0 size=       0kB time=00:00:00.00 bitrate=N/A speed=   0x    frame=   43 fps=5.3 q=0.0 size=       0kB time=00:00:00.00 bitrate=N/A speed=   0x    frame=   44 fps=3.9 q=0.0 size=       0kB time=00:00:00.00 bitrate=N/A speed=   0x    frame=   45 fps=3.7 q=0.0 size=       0kB time=00:00:00.00 bitrate=N/A speed=   0x    frame=   50 fps=3.9 q=0.0 size=       0kB time=00:00:00.00 bitrate=N/A speed=   0x    frame=   56 fps=4.2 q=45.0 size=       1kB time=00:00:00.12 bitrate=  46.6kbits/s speed=0.0095x    frame=   58 fps=4.2 q=55.0 size=       1kB time=00:00:00.20 bitrate=  28.1kbits/s speed=0.0152x    frame=   61 fps=4.2 q=55.0 size=       1kB time=00:00:00.33 bitrate=  17.6kbits/s speed=0.0228x    frame=   67 fps=4.4 q=56.0 size=       1kB time=00:00:00.58 bitrate=  10.1kbits/s speed=0.0385x    frame=   71 fps=4.4 q=56.0 size=       1kB time=00:00:00.75 bitrate=   7.8kbits/s speed=0.047x    frame=   76 fps=4.6 q=56.0 size=       1kB time=00:00:00.95 bitrate=   6.1kbits/s speed=0.0576x    frame=   83 fps=4.8 q=56.0 size=       1kB time=00:00:01.25 bitrate=   4.7kbits/s speed=0.0728x    frame=   89 fps=5.0 q=56.0 size=       1kB time=00:00:01.50 bitrate=   3.9kbits/s speed=0.0838x    frame=   90 fps=4.9 q=56.0 size=       1kB time=00:00:01.54 bitrate=   3.8kbits/s speed=0.0832x    frame=   94 fps=4.9 q=55.0 size=       1kB time=00:00:01.70 bitrate=   3.4kbits/s speed=0.0897x    frame=  100 fps=5.1 q=55.0 size=       1kB time=00:00:01.95 bitrate=   3.0kbits/s speed= 0.1x    frame=  103 fps=5.1 q=55.0 size=       1kB time=00:00:02.08 bitrate=   2.8kbits/s speed=0.104x    frame=  109 fps=5.3 q=55.0 size=       1kB time=00:00:02.33 bitrate=   2.5kbits/s speed=0.113x    frame=  116 fps=5.4 q=55.0 size=       1kB time=00:00:02.62 bitrate=   2.2kbits/s speed=0.122x    frame=  122 fps=5.5 q=55.0 size=       1kB time=00:00:02.87 bitrate=   2.0kbits/s speed=0.131x    frame=  128 fps=5.6 q=55.0 size=       1kB time=00:00:03.12 bitrate=   1.9kbits/s speed=0.138x    frame=  134 fps=5.8 q=55.0 size=       1kB time=00:00:03.37 bitrate=   1.7kbits/s speed=0.145x    frame=  139 fps=5.8 q=55.0 size=       1kB time=00:00:03.58 bitrate=   1.6kbits/s speed=0.151x    frame=  145 fps=6.0 q=55.0 size=       1kB time=00:00:03.83 bitrate=   1.5kbits/s speed=0.157x    frame=  149 fps=6.0 q=55.0 size=    1184kB time=00:00:04.00 bitrate=2423.9kbits/s speed=0.161x    frame=  154 fps=6.0 q=55.0 size=    1184kB time=00:00:04.20 bitrate=2304.1kbits/s speed=0.164x    frame=  158 fps=6.1 q=55.0 size=    1184kB time=00:00:04.37 bitrate=2216.2kbits/s speed=0.168x    frame=  166 fps=6.2 q=55.0 size=    1184kB time=00:00:04.70 bitrate=2059.5kbits/s speed=0.177x    frame=  169 fps=6.2 q=55.0 size=    1184kB time=00:00:04.83 bitrate=2006.2kbits/s speed=0.176x    frame=  172 fps=6.1 q=55.0 size=    1184kB time=00:00:04.95 bitrate=1955.6kbits/s speed=0.177x    frame=  178 fps=6.2 q=55.0 size=    1184kB time=00:00:05.20 bitrate=1861.8kbits/s speed=0.182x    frame=  181 fps=6.2 q=55.0 size=    1184kB time=00:00:05.33 bitrate=1818.2kbits/s speed=0.182x    frame=  184 fps=6.2 q=55.0 size=    1184kB time=00:00:05.45 bitrate=1776.5kbits/s speed=0.183x    frame=  187 fps=6.1 q=56.0 size=    1184kB time=00:00:05.58 bitrate=1736.8kbits/s speed=0.183x    frame=  188 fps=6.0 q=56.0 size=    1184kB time=00:00:05.62 bitrate=1723.8kbits/s speed=0.18x    frame=  193 fps=6.0 q=56.0 size=    1184kB time=00:00:05.83 bitrate=1662.3kbits/s speed=0.182x    frame=  200 fps=6.1 q=56.0 size=    1184kB time=00:00:06.12 bitrate=1583.1kbits/s speed=0.186x    frame=  204 fps=6.1 q=56.0 size=    1184kB time=00:00:06.29 bitrate=1541.1kbits/s speed=0.188x    frame=  208 fps=6.1 q=56.0 size=    1802kB time=00:00:06.45 bitrate=2285.7kbits/s speed=0.189x    frame=  213 fps=6.1 q=55.0 size=    1802kB time=00:00:06.66 bitrate=2214.1kbits/s speed=0.19x    frame=  214 fps=6.0 q=55.0 size=    1802kB time=00:00:06.70 bitrate=2200.6kbits/s speed=0.188x    frame=  217 fps=6.0 q=55.0 size=    1802kB time=00:00:06.83 bitrate=2160.3kbits/s speed=0.189x    frame=  223 fps=6.1 q=55.0 size=    1802kB time=00:00:07.08 bitrate=2084.1kbits/s speed=0.193x    frame=  227 fps=6.1 q=55.0 size=    1802kB time=00:00:07.25 bitrate=2036.1kbits/s speed=0.194x    frame=  231 fps=6.0 q=55.0 size=    1802kB time=00:00:07.41 bitrate=1990.2kbits/s speed=0.194x    frame=  238 fps=6.1 q=55.0 size=    2041kB time=00:00:07.70 bitrate=2169.3kbits/s speed=0.199x    frame=  244 fps=6.2 q=55.0 size=    2041kB time=00:00:07.95 bitrate=2101.2kbits/s speed=0.202x    frame=  245 fps=6.1 q=55.0 size=    2041kB time=00:00:08.00 bitrate=2090.2kbits/s speed=0.201x    frame=  253 fps=6.3 q=55.0 size=    2041kB time=00:00:08.33 bitrate=2006.7kbits/s speed=0.206x    frame=  257 fps=6.3 q=55.0 size=    2041kB time=00:00:08.50 bitrate=1967.2kbits/s speed=0.207x    frame=  259 fps=6.2 q=55.0 size=    2041kB time=00:00:08.58 bitrate=1948.2kbits/s speed=0.206x    frame=  261 fps=6.2 q=55.0 size=    2041kB time=00:00:08.66 bitrate=1929.3kbits/s speed=0.204x    frame=  263 fps=6.1 q=55.0 size=    2041kB time=00:00:08.75 bitrate=1911.0kbits/s speed=0.204x    frame=  264 fps=6.1 q=55.0 size=    2041kB time=00:00:08.79 bitrate=1901.9kbits/s speed=0.202x    frame=  267 fps=6.0 q=55.0 size=    2041kB time=00:00:08.91 bitrate=1875.2kbits/s speed=0.201x    frame=  269 fps=6.0 q=55.0 size=    2041kB time=00:00:09.00 bitrate=1858.0kbits/s speed= 0.2x    frame=  272 fps=5.9 q=55.0 size=    2041kB time=00:00:09.12 bitrate=1832.5kbits/s speed=0.199x    frame=  278 fps=6.0 q=54.0 size=    2041kB time=00:00:09.37 bitrate=1783.6kbits/s speed=0.201x    frame=  283 fps=6.0 q=54.0 size=    2041kB time=00:00:09.58 bitrate=1744.9kbits/s speed=0.202x    frame=  288 fps=6.0 q=54.0 size=    2041kB time=00:00:09.79 bitrate=1707.7kbits/s speed=0.204x    frame=  294 fps=6.0 q=54.0 size=    2041kB time=00:00:10.04 bitrate=1665.2kbits/s speed=0.206x    frame=  300 fps=6.1 q=54.0 size=    2041kB time=00:00:10.29 bitrate=1624.7kbits/s speed=0.208x    frame=  304 fps=6.0 q=54.0 size=    2041kB time=00:00:10.45 bitrate=1599.0kbits/s speed=0.208x    frame=  310 fps=6.1 q=54.0 size=    2041kB time=00:00:10.70 bitrate=1561.6kbits/s speed=0.211x    frame=  312 fps=6.0 q=53.0 size=    2041kB time=00:00:10.79 bitrate=1549.5kbits/s speed=0.209x    frame=  318 fps=6.0 q=53.0 size=    2639kB time=00:00:11.04 bitrate=1957.6kbits/s speed=0.21x    frame=  325 fps=6.1 q=53.0 size=    2639kB time=00:00:11.33 bitrate=1907.3kbits/s speed=0.213x    frame=  328 fps=6.1 q=53.0 size=    2639kB time=00:00:11.45 bitrate=1886.5kbits/s speed=0.213x    frame=  332 fps=6.1 q=53.0 size=    2639kB time=00:00:11.62 bitrate=1859.4kbits/s speed=0.213x    frame=  334 fps=6.1 q=53.0 size=    2639kB time=00:00:11.70 bitrate=1846.2kbits/s speed=0.213x    frame=  336 fps=6.0 q=53.0 size=    2639kB time=00:00:11.79 bitrate=1833.1kbits/s speed=0.211x    frame=  338 fps=6.0 q=53.0 size=    2639kB time=00:00:11.87 bitrate=1820.3kbits/s speed=0.21x    frame=  343 fps=6.0 q=53.0 size=    2639kB time=00:00:12.08 bitrate=1788.9kbits/s speed=0.212x    frame=  353 fps=6.1 q=52.0 size=    2639kB time=00:00:12.50 bitrate=1729.3kbits/s speed=0.217x    frame=  359 fps=6.2 q=52.0 size=    2639kB time=00:00:12.75 bitrate=1695.4kbits/s speed=0.218x    frame=  365 fps=6.2 q=51.0 size=    2639kB time=00:00:13.00 bitrate=1662.8kbits/s speed=0.22x    frame=  372 fps=6.2 q=51.0 size=    2639kB time=00:00:13.29 bitrate=1626.2kbits/s speed=0.223x    frame=  374 fps=6.2 q=51.0 size=    2639kB time=00:00:13.37 bitrate=1616.2kbits/s speed=0.222x    frame=  380 fps=6.3 q=50.0 size=    2639kB time=00:00:13.62 bitrate=1586.5kbits/s speed=0.224x    frame=  382 fps=6.2 q=51.0 size=    2639kB time=00:00:13.70 bitrate=1576.9kbits/s speed=0.223x    frame=  384 fps=6.1 q=50.0 size=    2639kB time=00:00:13.79 bitrate=1567.3kbits/s speed=0.22x    frame=  389 fps=6.2 q=50.0 size=    2639kB time=00:00:14.00 bitrate=1544.0kbits/s speed=0.222x    frame=  391 fps=6.1 q=50.0 size=    2639kB time=00:00:14.08 bitrate=1534.9kbits/s speed=0.22x    frame=  393 fps=6.1 q=50.0 size=    2639kB time=00:00:14.16 bitrate=1525.8kbits/s speed=0.219x    frame=  396 fps=6.1 q=50.0 size=    2639kB time=00:00:14.29 bitrate=1512.5kbits/s speed=0.218x    frame=  403 fps=6.1 q=49.0 size=    2639kB time=00:00:14.58 bitrate=1482.3kbits/s speed=0.221x    frame=  405 fps=6.1 q=49.0 size=    2639kB time=00:00:14.66 bitrate=1473.8kbits/s speed=0.221x    frame=  407 fps=6.1 q=49.0 size=    2639kB time=00:00:14.75 bitrate=1465.5kbits/s speed=0.22x    frame=  409 fps=6.1 q=49.0 size=    2639kB time=00:00:14.83 bitrate=1457.3kbits/s speed=0.219x    frame=  410 fps=6.0 q=49.0 size=    2639kB time=00:00:14.87 bitrate=1453.2kbits/s speed=0.217x    frame=  416 fps=6.0 q=49.0 size=    3105kB time=00:00:15.12 bitrate=1681.7kbits/s speed=0.219x    frame=  418 fps=6.0 q=49.0 size=    3105kB time=00:00:15.20 bitrate=1672.5kbits/s speed=0.218x    frame=  419 fps=6.0 q=49.0 size=    3105kB time=00:00:15.25 bitrate=1667.9kbits/s speed=0.217x    frame=  425 fps=6.0 q=49.0 size=    3105kB time=00:00:15.50 bitrate=1641.0kbits/s speed=0.219x    frame=  431 fps=6.0 q=49.0 size=    3105kB time=00:00:15.75 bitrate=1615.0kbits/s speed=0.221x    frame=  434 fps=6.0 q=49.0 size=    3105kB time=00:00:15.87 bitrate=1602.3kbits/s speed=0.221x    frame=  438 fps=6.0 q=48.0 size=    3105kB time=00:00:16.04 bitrate=1585.6kbits/s speed=0.22x    frame=  447 fps=6.1 q=48.0 size=    3105kB time=00:00:16.41 bitrate=1549.4kbits/s speed=0.223x    frame=  449 fps=6.0 q=48.0 size=    3105kB time=00:00:16.50 bitrate=1541.6kbits/s speed=0.222x    frame=  451 fps=6.0 q=48.0 size=    3105kB time=00:00:16.58 bitrate=1533.9kbits/s speed=0.222x    frame=  460 fps=6.1 q=48.0 size=    3105kB time=00:00:16.95 bitrate=1499.9kbits/s speed=0.225x    frame=  463 fps=6.1 q=48.0 size=    3105kB time=00:00:17.08 bitrate=1489.0kbits/s speed=0.225x    frame=  474 fps=6.2 q=48.0 size=    3574kB time=00:00:17.54 bitrate=1668.9kbits/s speed=0.23x    frame=  479 fps=6.2 q=48.0 size=    3574kB time=00:00:17.75 bitrate=1649.3kbits/s speed=0.231x    frame=  488 fps=6.3 q=48.0 size=    3574kB time=00:00:18.12 bitrate=1615.2kbits/s speed=0.234x    frame=  497 fps=6.4 q=48.0 size=    3574kB time=00:00:18.50 bitrate=1582.5kbits/s speed=0.237x    frame=  500 fps=6.2 q=-1.0 Lsize=    4156kB time=00:00:20.70 bitrate=1644.1kbits/s speed=0.258x    
video:4152kB audio:0kB subtitle:0kB other streams:0kB global headers:0kB muxing overhead: 0.106953%
bench: utime=128.360s
bench: maxrss=1566140kB
[libx264 @ 0x42e71c0] frame I:8     Avg QP:43.23  size: 28259
[libx264 @ 0x42e71c0] frame P:269   Avg QP:48.46  size: 10583
[libx264 @ 0x42e71c0] frame B:223   Avg QP:47.29  size:  5281
[libx264 @ 0x42e71c0] consecutive B-frames: 37.0%  8.4%  6.6% 48.0%
[libx264 @ 0x42e71c0] mb I  I16..4: 17.4% 82.3%  0.3%
[libx264 @ 0x42e71c0] mb P  I16..4:  7.1% 28.5%  0.0%  P16..4:  5.1%  0.2%  0.1%  0.0%  0.0%    skip:59.0%
[libx264 @ 0x42e71c0] mb B  I16..4:  0.7%  1.0%  0.0%  B16..8: 12.9%  0.2%  0.0%  direct: 0.1%  skip:85.1%  L0:42.3% L1:57.3% BI: 0.4%
[libx264 @ 0x42e71c0] final ratefactor: 45.38
[libx264 @ 0x42e71c0] 8x8 transform intra:79.4% inter:97.9%
[libx264 @ 0x42e71c0] coded y,uvDC,uvAC intra: 3.7% 15.6% 0.1% inter: 0.5% 0.8% 0.0%
[libx264 @ 0x42e71c0] i16 v,h,dc,p: 45% 37%  5% 13%
[libx264 @ 0x42e71c0] i8 v,h,dc,ddl,ddr,vr,hd,vl,hu: 17%  7% 75%  0%  0%  0%  0%  0%  0%
[libx264 @ 0x42e71c0] i4 v,h,dc,ddl,ddr,vr,hd,vl,hu: 26% 22% 16%  8%  9%  5%  7%  3%  3%
[libx264 @ 0x42e71c0] i8c dc,h,v,p: 98%  1%  1%  0%
[libx264 @ 0x42e71c0] Weighted P-Frames: Y:1.1% UV:0.7%
[libx264 @ 0x42e71c0] ref P L0: 61.6%  2.7% 25.7%  9.9%  0.1%
[libx264 @ 0x42e71c0] ref B L0: 82.9% 13.9%  3.1%
[libx264 @ 0x42e71c0] ref B L1: 95.4%  4.6%
[libx264 @ 0x42e71c0] kb/s:1632.27
